<svg xmlns="http://www.w3.org/2000/svg" xmlns:xlink="http://www.w3.org/1999/xlink" viewBox="0 0 930.17 203.32"><defs><style>.cls-1{fill:url(#linear-gradient);}</style><linearGradient id="linear-gradient" y1="101.66" x2="930.17" y2="101.66" gradientUnits="userSpaceOnUse"><stop offset="0" stop-color="#42878e"/><stop offset="1" stop-color="#02343f"/></linearGradient></defs><g id="Edit"><path class="cls-1" d="M122.37,99.73,67,75.09Q62.41,73,62.41,69c0-3.84,2.3-5.77,6.94-5.77h47.08c3,0,5.82,1.49,8.55,4.47s5.75,4.45,9,4.45a10.27,10.27,0,0,0,7-2.84A9.46,9.46,0,0,0,144.2,62q0-6.31-8.56-13a31.28,31.28,0,0,0-19.7-6.63H68.23a25.32,25.32,0,0,0-19.15,8.19,27.16,27.16,0,0,0-7.75,19.32,25.64,25.64,0,0,0,4.35,13.89,27.63,27.63,0,0,0,12.39,10.4L114,119.32q6.94,3.09,7,10.15a12,12,0,0,1-3.11,8.12,9.83,9.83,0,0,1-7.68,3.54H71.33c-5.7,0-10.07-1.49-13.08-4.47s-5.84-4.47-8.47-4.47a10.48,10.48,0,0,0-7.89,3.17,10.24,10.24,0,0,0-3,7.26q0,6.18,9.36,12.75a34.55,34.55,0,0,0,20.25,6.57h42.14q12,0,21.49-9.29A30.51,30.51,0,0,0,141.59,130a32.6,32.6,0,0,0-5.4-18.29A31.57,31.57,0,0,0,122.37,99.73Zm121.35,44.19a10.46,10.46,0,0,0-7.5-3H215.4V52.78a10.46,10.46,0,0,0-3-7.51A9.87,9.87,0,0,0,205,42.12H173.27a9.88,9.88,0,0,0-7.38,3.15,10.53,10.53,0,0,0-3,7.51,10.14,10.14,0,0,0,3,7.31,10,10,0,0,0,7.38,3.09h21.06v77.69H173a9.9,9.9,0,0,0-7.36,3.1,10.36,10.36,0,0,0,0,14.68,10,10,0,0,0,7.36,3h63.44a10.15,10.15,0,0,0,7.33-3,9.92,9.92,0,0,0,3.09-7.37A9.82,9.82,0,0,0,243.72,143.92Zm126-73.5v80.94a10.45,10.45,0,0,1-3.2,7.53c-.22.22-.46.42-.69.61a10.36,10.36,0,0,1-5.05,2.2,9.14,9.14,0,0,1-1.48.12,10.43,10.43,0,0,1-10.41-10.46V75l-.05-1.27q-.36-10.9-11.42-10.91H327.2q-4.71,0-10.18,3.61L288.6,84.87v66.54a10.42,10.42,0,0,1-20.83,0V52.66a10.48,10.48,0,0,1,3.05-7.51A9.79,9.79,0,0,1,278.18,42a10,10,0,0,1,7.32,3.15,10.41,10.41,0,0,1,3.1,7.51V59.6l19-11.52A39.25,39.25,0,0,1,329.18,42h9.68a29.77,29.77,0,0,1,21.47,8.8,30.28,30.28,0,0,1,9.12,17.48,0,0,0,0,1,0,0c.06.44.13.88.18,1.32C369.67,69.88,369.69,70.15,369.69,70.42ZM477.45,109l-66.14,73.25v21.07H0V25.38A25.38,25.38,0,0,1,25.38,0H131.26A10.57,10.57,0,0,1,141.8,10.55a10.55,10.55,0,0,1-10.54,10.52H31A10.52,10.52,0,0,0,20.5,31.6c0,52.9,0,150.91.06,150.91H390.5V21.13a.07.07,0,0,0-.07-.07H246.57a9.85,9.85,0,0,1-7.37-3.14,10.44,10.44,0,0,1-3-7.5,10.11,10.11,0,0,1,3-7.32A9.93,9.93,0,0,1,246.57,0H411.24a.07.07,0,0,1,.07.07v21l66.14,73.25A11,11,0,0,1,477.45,109ZM205.09,21.07H172.88A10.3,10.3,0,0,1,162.61,10.8v-.52A10.3,10.3,0,0,1,172.88,0h32.21a10.31,10.31,0,0,1,10.28,10.27v.52A10.31,10.31,0,0,1,205.09,21.07ZM617.92,80.29v43.85a8.26,8.26,0,0,1-3.31,7.07l-8.33,7.43a9.18,9.18,0,0,1-6.19,2.23h-17a10.92,10.92,0,0,1-7.56-3.35L558.83,123.4a10.89,10.89,0,0,1-4.1-8.67V91.18q0-6.44,3.59-9.66l18.71-16c1.84-1.58,4.48-2.36,7.93-2.36h14.38A11.85,11.85,0,0,1,607,66l7.58,6.32C616.84,74.16,617.92,76.82,617.92,80.29Zm121.75,30.84a9.92,9.92,0,0,0-7.31-3h-41a10.38,10.38,0,0,0-10.44,10.4v11.64a10.59,10.59,0,0,0,10.44,10.41h29.4l20.9-12.22V113.79A10.35,10.35,0,0,0,739.67,111.13Zm0,0a9.92,9.92,0,0,0-7.31-3h-41a10.38,10.38,0,0,0-10.44,10.4v11.64a10.59,10.59,0,0,0,10.44,10.41h29.4l20.9-12.22V113.79A10.35,10.35,0,0,0,739.67,111.13ZM432.14,0,505,81a31.54,31.54,0,0,1-.11,42.32c-27,29.62-72.76,79.94-72.76,80H904.8a25.37,25.37,0,0,0,25.37-25.38V0S432.14,0,432.14,0ZM639,123.4a32.47,32.47,0,0,1-2.49,12q-2.47,6.31-5.7,9.28l-9,8.56a31.71,31.71,0,0,1-9.88,6A29.6,29.6,0,0,1,601,161.94H583.12q-13,0-28.39-14.5v4.09a10.4,10.4,0,1,1-20.79,0V31.37A9.91,9.91,0,0,1,537,24a10.37,10.37,0,0,1,17.71,7.38V56.62l9.17-7.31q8.69-7.2,18-7.19H601a27.55,27.55,0,0,1,18.71,7.19l9.9,8.54a26.57,26.57,0,0,1,6.75,10.29A35.4,35.4,0,0,1,639,81.27ZM762.43,151A10.41,10.41,0,0,1,752,161.41a5.39,5.39,0,0,1-.69,0A10.42,10.42,0,0,1,741.8,153l-15.22,9H691.34a31.36,31.36,0,0,1-31.52-31.47V118.32a31.53,31.53,0,0,1,31.52-31.47h40.82a46.24,46.24,0,0,1,9.46,1.42V74.57l0-1a10.36,10.36,0,0,0-10.4-10.41H691.56a10.61,10.61,0,0,1-10.43-10.4,10.4,10.4,0,0,1,10.43-10.42h39.59a30.25,30.25,0,0,1,22,9A31,31,0,0,1,761.8,66.7a33.44,33.44,0,0,1,.63,3.56Zm126.13.52a10,10,0,0,1-3.08,7.38,10.2,10.2,0,0,1-7.31,3,10.06,10.06,0,0,1-7.46-3,10.17,10.17,0,0,1-3-7.38V147q-15.25,15-28.5,15H821.52q-10.62,0-21.31-9.17l-8.68-7.31c-2-1.9-3.86-5.08-5.64-9.54a34.08,34.08,0,0,1-2.65-12.52V81a33.1,33.1,0,0,1,3-13.7,27.61,27.61,0,0,1,6.95-10L801.7,50a31.89,31.89,0,0,1,21.55-7.92h15c8.21,0,15.63,2.89,22.32,8.66l7.19,6.08V31.37a10.15,10.15,0,0,1,3-7.38,9.71,9.71,0,0,1,7.19-3,10.42,10.42,0,0,1,7.49,3,9.81,9.81,0,0,1,3.17,7.38ZM863.4,80.78l-16.95-14.5a12.74,12.74,0,0,0-9-3.1H823a12,12,0,0,0-8.29,3.35L808,72.35a10.21,10.21,0,0,0-3.47,7.94v44.1c0,2.9,1.37,5.5,4.09,7.8l6.84,5.84a10.07,10.07,0,0,0,6.8,2.84h17c2.24,0,4.88-1.28,7.94-3.84l16.46-13.63a11.39,11.39,0,0,0,4.1-8.92V91.93C867.75,86.89,866.29,83.18,863.4,80.78Zm-131,27.39h-41a10.38,10.38,0,0,0-10.44,10.4v11.64a10.59,10.59,0,0,0,10.44,10.41h29.4l20.9-12.22V113.79a10.35,10.35,0,0,0-2-2.66A9.92,9.92,0,0,0,732.36,108.17Z"/></g></svg>